<svg width="31" height="28" viewBox="0 0 31 28" fill="none" xmlns="http://www.w3.org/2000/svg">
<path d="M15.5 0C6.92468 0 0 6.27377 0 14C0 21.7351 6.93745 28 15.5 28C24.101 28 31 21.7055 31 14C31 6.25559 24.0489 0 15.5 0ZM23.4763 22.2457C21.2669 23.9945 18.4649 24.9499 15.5 24.9499C12.5356 24.9499 9.73413 23.9948 7.5249 22.2466C7.22604 22.0102 7.09096 21.6467 7.17066 21.2952C7.93384 17.9282 10.3083 15.2727 13.3307 14.3991C11.7535 13.5558 10.671 11.8233 10.671 9.82135C10.671 6.99134 12.8331 4.69717 15.5 4.69717C18.1669 4.69717 20.329 6.99134 20.329 9.82135C20.329 11.823 19.2468 13.5552 17.6701 14.3987C20.6925 15.2721 23.067 17.9275 23.8304 21.2942C23.91 21.6453 23.7747 22.0095 23.4763 22.2457Z" fill="white"/>
</svg>
